# xmcd
#
# Track frame offsets:
# 150
# 11695
# 27445
# 53850
# 67637
# 83995
# 101027
# 120302
# 130967
# 143595
# 154285
# 168425
#
# Disc length: 2390 seconds
#
#
# Revision: 0
# Processed by: cddbd v1.5.1PL0 Copyright (c) Steve Scherf et al.
# Submitted via: FreeRIP 2.90 
#
DISCID=9709540c
DTITLE=Charles Aznavour - Raros Collection - Soh O Melhor De
DYEAR=2004
DGENRE=Blues
TTITLE0=She
TTITLE1=Yesterday When I Was Young
TTITLE2=Happy Anniversary
TTITLE3=In Your Room
TTITLE4=In Times To Be
TTITLE5=To Die Of Love
TTITLE6=Lets Turn Out The Light
TTITLE7=Donne Les 16 Ans
TTITLE8=Et Pourtant
TTITLE9=Les Comediens
TTITLE10=Tu Etais Trop Jolie
TTITLE11=Jezebel
EXTD=
EXTT0=
EXTT1=
EXTT2=
EXTT3=
EXTT4=
EXTT5=
EXTT6=
EXTT7=
EXTT8=
EXTT9=
EXTT10=
EXTT11=
PLAYORDER=
